<?xml version="1.0" standalone="no"?>
<!DOCTYPE svg PUBLIC "-//W3C//DTD SVG 20010904//EN"
 "http://www.w3.org/TR/2001/REC-SVG-20010904/DTD/svg10.dtd">
<svg version="1.0" xmlns="http://www.w3.org/2000/svg"
 width="64.000000pt" height="64.000000pt" viewBox="0 0 64.000000 64.000000"
 preserveAspectRatio="xMidYMid meet">

<g transform="translate(0.000000,64.000000) scale(0.100000,-0.100000)"
fill="#000000" stroke="none">
<path d="M235 627 c-63 -21 -101 -44 -141 -85 -121 -122 -120 -324 2 -446 123
-123 323 -123 448 -1 122 120 122 328 1 450 -76 76 -216 113 -310 82z m135
-187 l5 -65 65 -5 c63 -5 65 -6 68 -34 2 -15 1 -39 -2 -52 -6 -22 -11 -24 -71
-24 l-64 0 -3 -62 -3 -63 -45 0 -45 0 -3 63 -3 62 -58 0 c-69 0 -84 12 -79 67
l3 38 65 5 65 5 3 55 c4 79 6 82 54 78 l43 -3 5 -65z"/>
</g>
</svg>
