<?xml version="1.0" standalone="no"?>
<!DOCTYPE svg PUBLIC "-//W3C//DTD SVG 20010904//EN"
 "http://www.w3.org/TR/2001/REC-SVG-20010904/DTD/svg10.dtd">
<svg version="1.0" xmlns="http://www.w3.org/2000/svg"
 width="64.000000pt" height="64.000000pt" viewBox="0 0 64.000000 64.000000"
 preserveAspectRatio="xMidYMid meet">

<g transform="translate(0.000000,64.000000) scale(0.100000,-0.100000)"
fill="#000000" stroke="none">
<path d="M233 500 c-26 -11 -30 -28 -8 -36 11 -5 15 -22 15 -65 0 -32 -4 -59
-10 -59 -10 0 -40 46 -74 113 -19 37 -19 37 -83 37 -46 0 -65 -4 -69 -14 -7
-18 63 -154 114 -221 20 -27 57 -63 80 -80 38 -26 52 -30 110 -30 64 0 67 1
70 25 8 52 22 54 67 10 l42 -41 74 3 c94 4 98 17 30 92 -28 31 -51 59 -51 62
0 3 23 40 50 82 28 41 50 82 48 91 -3 13 -19 17 -79 19 l-76 3 -13 -30 c-19
-47 -68 -121 -80 -121 -6 0 -10 31 -10 75 0 72 -1 76 -26 85 -31 12 -91 12
-121 0z"/>
</g>
</svg>
