<?xml version="1.0" standalone="no"?>
<!DOCTYPE svg PUBLIC "-//W3C//DTD SVG 20010904//EN"
 "http://www.w3.org/TR/2001/REC-SVG-20010904/DTD/svg10.dtd">
<svg version="1.0" xmlns="http://www.w3.org/2000/svg"
 width="64.000000pt" height="64.000000pt" viewBox="0 0 64.000000 64.000000"
 preserveAspectRatio="xMidYMid meet">

<g transform="translate(0.000000,64.000000) scale(0.100000,-0.100000)"
fill="#000000" stroke="none">
<path d="M310 487 c-354 -142 -353 -141 -225 -190 44 -17 81 -32 83 -33 2 -1
12 -37 24 -80 29 -110 36 -116 93 -76 25 18 50 32 56 32 5 0 42 -22 82 -48 94
-63 91 -62 104 -54 6 4 34 128 62 276 43 220 50 272 39 282 -10 10 -72 -11
-318 -109z m180 10 c0 -2 -58 -58 -129 -125 l-130 -122 -13 27 c-9 18 -30 34
-67 48 l-53 22 188 76 c180 72 204 81 204 74z m45 -197 c-19 -102 -35 -189
-35 -193 0 -6 -172 106 -199 130 -3 2 56 61 130 132 74 71 135 125 137 122 1
-4 -13 -90 -33 -191z m-250 -120 c3 -5 -4 -14 -15 -20 -11 -6 -20 -7 -20 -3 0
4 -3 19 -7 32 -5 21 -4 22 15 12 11 -6 24 -15 27 -21z"/>
</g>
</svg>
