<?xml version="1.0" standalone="no"?>
<!DOCTYPE svg PUBLIC "-//W3C//DTD SVG 20010904//EN"
 "http://www.w3.org/TR/2001/REC-SVG-20010904/DTD/svg10.dtd">
<svg version="1.0" xmlns="http://www.w3.org/2000/svg"
 width="64.000000pt" height="64.000000pt" viewBox="0 0 64.000000 64.000000"
 preserveAspectRatio="xMidYMid meet">

<g transform="translate(0.000000,64.000000) scale(0.100000,-0.100000)"
fill="#000000" stroke="none">
<path d="M310 464 c-107 -35 -212 -69 -232 -74 l-38 -11 0 -122 c0 -82 4 -127
12 -135 17 -17 469 -17 486 0 7 7 12 39 12 75 0 47 4 63 14 63 7 0 19 6 25 14
10 11 5 39 -24 129 -19 63 -41 117 -48 120 -6 2 -100 -24 -207 -59z m216 -6
c9 -29 19 -59 22 -65 2 -7 0 -13 -6 -13 -5 0 -15 20 -22 45 -7 25 -17 48 -22
51 -14 9 -58 -5 -58 -17 0 -7 10 -9 25 -5 21 5 25 2 33 -26 l8 -33 -64 -3
c-43 -2 -79 3 -105 13 -37 15 -41 15 -49 1 -7 -12 -25 -16 -71 -15 l-62 1 175
58 c96 32 176 58 177 59 1 1 9 -23 19 -51z m2 -205 l-3 -118 -230 0 -230 0 -3
118 -3 117 236 0 236 0 -3 -117z m51 40 c1 -7 -6 -13 -14 -13 -11 0 -15 12
-14 48 l1 47 13 -35 c7 -19 14 -41 14 -47z"/>
<path d="M84 337 c-3 -8 -4 -52 -2 -98 3 -80 4 -84 27 -87 13 -2 28 1 34 7 8
8 3 11 -16 11 l-27 0 0 80 c0 73 2 80 19 80 11 0 23 5 26 10 4 6 -7 10 -25 10
-17 0 -33 -6 -36 -13z"/>
<path d="M267 328 c-34 -25 -35 -53 -2 -74 15 -10 25 -26 25 -40 0 -27 -17
-32 -26 -9 -8 19 -24 20 -24 1 0 -8 12 -23 28 -34 27 -20 27 -20 55 2 32 26
35 61 7 76 -12 7 -20 21 -20 37 0 25 0 26 20 8 17 -16 20 -16 20 -2 0 8 -12
25 -28 35 -27 20 -28 20 -55 0z m23 -38 c0 -11 -7 -20 -15 -20 -15 0 -21 21
-8 33 12 13 23 7 23 -13z m40 -75 c0 -8 -4 -17 -10 -20 -6 -4 -10 5 -10 20 0
15 4 24 10 20 6 -3 10 -12 10 -20z"/>
<path d="M445 341 c3 -6 15 -11 26 -11 17 0 19 -7 19 -80 l0 -80 -27 0 c-19 0
-24 -3 -16 -11 6 -6 21 -9 34 -7 23 3 24 6 24 98 l0 95 -34 3 c-21 2 -31 0
-26 -7z"/>
</g>
</svg>
