<?xml version="1.0" standalone="no"?>
<!DOCTYPE svg PUBLIC "-//W3C//DTD SVG 20010904//EN"
 "http://www.w3.org/TR/2001/REC-SVG-20010904/DTD/svg10.dtd">
<svg version="1.0" xmlns="http://www.w3.org/2000/svg"
 width="64.000000pt" height="64.000000pt" viewBox="0 0 64.000000 64.000000"
 preserveAspectRatio="xMidYMid meet">

<g transform="translate(0.000000,64.000000) scale(0.100000,-0.100000)"
fill="#000000" stroke="none">
<path d="M220 624 c-142 -52 -229 -183 -218 -327 26 -318 443 -407 597 -127
33 60 36 71 36 150 -1 72 -5 93 -27 136 -39 75 -70 107 -138 143 -76 41 -179
51 -250 25z m203 -24 c180 -67 250 -281 146 -444 -29 -46 -49 -59 -49 -31 0
47 -68 129 -124 149 -18 6 -17 8 8 35 58 60 37 155 -42 188 -32 13 -42 14 -77
2 -84 -29 -109 -127 -49 -190 25 -27 26 -29 8 -35 -56 -20 -124 -102 -124
-149 0 -53 -71 47 -90 127 -55 229 172 430 393 348z m-36 -142 c63 -58 19
-168 -67 -168 -108 0 -132 155 -30 193 24 9 73 -4 97 -25z m37 -222 c44 -33
65 -64 76 -111 7 -31 5 -38 -17 -55 -32 -25 -114 -50 -163 -50 -49 0 -131 25
-163 50 -21 17 -24 25 -18 53 14 60 46 99 106 132 47 25 134 16 179 -19z"/>
<path d="M300 190 c-6 -11 -20 -20 -30 -20 -24 0 -26 -13 -5 -30 9 -7 13 -21
9 -34 -5 -21 -2 -22 46 -22 48 0 51 1 46 22 -4 13 0 27 9 34 21 17 19 30 -5
30 -10 0 -24 9 -30 20 -6 11 -15 20 -20 20 -5 0 -14 -9 -20 -20z m37 -31 c15
-15 4 -49 -17 -49 -21 0 -32 34 -17 49 6 6 14 11 17 11 3 0 11 -5 17 -11z"/>
</g>
</svg>
